<svg width="30" height="30" viewBox="0 0 30 30" fill="none" xmlns="http://www.w3.org/2000/svg">
<g id="Frame 1046231">
<g id="Vector">
<path d="M1.87636 13.0756L1.86621 13.0858L1.86726 13.0857C0.827704 14.238 0.194824 15.7642 0.194824 17.4383C0.194824 21.0282 3.10497 23.9383 6.69482 23.9383C10.2847 23.9383 13.1948 21.0282 13.1948 17.4383C13.1948 15.3313 12.1923 13.4585 10.6383 12.2708L12.6478 10.2928C13.0437 9.90326 13.0462 9.26576 12.6535 8.87305L10.0733 6.29289C9.68279 5.90237 9.04963 5.90237 8.6591 6.29289L2.33213 12.6199C2.17282 12.7642 2.0207 12.9163 1.87636 13.0756Z" fill="black"/>
<path d="M18.4867 13.0756L18.4766 13.0858L18.4776 13.0857C17.4381 14.238 16.8052 15.7642 16.8052 17.4383C16.8052 21.0282 19.7153 23.9383 23.3052 23.9383C26.895 23.9383 29.8052 21.0282 29.8052 17.4383C29.8052 15.3313 28.8027 13.4585 27.2486 12.2708L29.2582 10.2928C29.654 9.90326 29.6565 9.26576 29.2638 8.87305L26.6837 6.29289C26.2931 5.90237 25.66 5.90237 25.2695 6.29289L18.9425 12.6199C18.7832 12.7642 18.631 12.9163 18.4867 13.0756Z" fill="black"/>
</g>
</g>
</svg>
